<?xml version="1.0" encoding="utf-8" standalone="no"?>
<!DOCTYPE svg PUBLIC "-//W3C//DTD SVG 1.1//EN"
  "http://www.w3.org/Graphics/SVG/1.1/DTD/svg11.dtd">
<!-- Created with matplotlib (http://matplotlib.org/) -->
<svg height="576pt" version="1.1" viewBox="0 0 576 576" width="576pt" xmlns="http://www.w3.org/2000/svg" xmlns:xlink="http://www.w3.org/1999/xlink">
 <defs>
  <style type="text/css">
*{stroke-linecap:butt;stroke-linejoin:round;stroke-miterlimit:100000;}
  </style>
 </defs>
 <g id="figure_1">
  <g id="patch_1">
   <path d="M 0 576 
L 576 576 
L 576 0 
L 0 0 
z
" style="fill:#ffffff;"/>
  </g>
  <g id="axes_1">
   <g id="patch_2">
    <path d="M 0 576 
L 576 576 
L 576 57.6 
L 0 57.6 
z
" style="fill:#ffffff;"/>
   </g>
   <g id="LineCollection_1">
    <path clip-path="url(#p17a7d03b49)" d="M 486.797734 262.269106 
L 343.194395 285.79696 
" style="fill:none;stroke:#2f4f4f;stroke-width:3.0;"/>
    <path clip-path="url(#p17a7d03b49)" d="M 310.879255 131.657143 
L 343.194395 285.79696 
" style="fill:none;stroke:#2f4f4f;"/>
    <path clip-path="url(#p17a7d03b49)" d="M 310.879255 131.657143 
L 277.808354 218.866124 
" style="fill:none;stroke:#2f4f4f;stroke-width:4.0;"/>
    <path clip-path="url(#p17a7d03b49)" d="M 184.895424 319.839816 
L 343.194395 285.79696 
" style="fill:none;stroke:#2f4f4f;stroke-width:2.0;"/>
    <path clip-path="url(#p17a7d03b49)" d="M 184.895424 319.839816 
L 277.808354 218.866124 
" style="fill:none;stroke:#2f4f4f;"/>
    <path clip-path="url(#p17a7d03b49)" d="M 184.895424 319.839816 
L 297.422245 371.709375 
" style="fill:none;stroke:#2f4f4f;stroke-width:2.0;"/>
    <path clip-path="url(#p17a7d03b49)" d="M 184.895424 319.839816 
L 225.744403 411.833364 
" style="fill:none;stroke:#2f4f4f;"/>
    <path clip-path="url(#p17a7d03b49)" d="M 184.895424 319.839816 
L 82.285714 364.248697 
" style="fill:none;stroke:#2f4f4f;stroke-width:4.0;"/>
    <path clip-path="url(#p17a7d03b49)" d="M 225.744403 411.833364 
L 343.194395 285.79696 
" style="fill:none;stroke:#2f4f4f;"/>
    <path clip-path="url(#p17a7d03b49)" d="M 225.744403 411.833364 
L 297.422245 371.709375 
" style="fill:none;stroke:#2f4f4f;stroke-width:6.0;"/>
    <path clip-path="url(#p17a7d03b49)" d="M 225.744403 411.833364 
L 82.285714 364.248697 
" style="fill:none;stroke:#2f4f4f;"/>
    <path clip-path="url(#p17a7d03b49)" d="M 378.834127 501.942857 
L 297.422245 371.709375 
" style="fill:none;stroke:#2f4f4f;stroke-width:2.0;"/>
    <path clip-path="url(#p17a7d03b49)" d="M 343.194395 285.79696 
L 277.808354 218.866124 
" style="fill:none;stroke:#2f4f4f;stroke-width:2.0;"/>
    <path clip-path="url(#p17a7d03b49)" d="M 343.194395 285.79696 
L 297.422245 371.709375 
" style="fill:none;stroke:#2f4f4f;stroke-width:3.0;"/>
    <path clip-path="url(#p17a7d03b49)" d="M 277.808354 218.866124 
L 297.422245 371.709375 
" style="fill:none;stroke:#2f4f4f;stroke-width:2.0;"/>
   </g>
   <g id="PathCollection_1">
    <path clip-path="url(#p17a7d03b49)" d="M 486.797734 267.859276 
C 488.280264 267.859276 489.702273 267.270261 490.750581 266.221953 
C 491.798888 265.173646 492.387904 263.751637 492.387904 262.269106 
C 492.387904 260.786576 491.798888 259.364567 490.750581 258.316259 
C 489.702273 257.267952 488.280264 256.678936 486.797734 256.678936 
C 485.315203 256.678936 483.893194 257.267952 482.844887 258.316259 
C 481.796579 259.364567 481.207564 260.786576 481.207564 262.269106 
C 481.207564 263.751637 481.796579 265.173646 482.844887 266.221953 
C 483.893194 267.270261 485.315203 267.859276 486.797734 267.859276 
z
" style="fill:#1e90ff;fill-opacity:0.8;stroke:#000000;stroke-opacity:0.8;"/>
    <path clip-path="url(#p17a7d03b49)" d="M 310.879255 135.60999 
C 311.927562 135.60999 312.933075 135.193493 313.67434 134.452228 
C 314.415605 133.710963 314.832102 132.70545 314.832102 131.657143 
C 314.832102 130.608836 314.415605 129.603323 313.67434 128.862058 
C 312.933075 128.120793 311.927562 127.704296 310.879255 127.704296 
C 309.830948 127.704296 308.825435 128.120793 308.08417 128.862058 
C 307.342905 129.603323 306.926408 130.608836 306.926408 131.657143 
C 306.926408 132.70545 307.342905 133.710963 308.08417 134.452228 
C 308.825435 135.193493 309.830948 135.60999 310.879255 135.60999 
z
" style="fill:#1e90ff;fill-opacity:0.8;stroke:#000000;stroke-opacity:0.8;"/>
    <path clip-path="url(#p17a7d03b49)" d="M 184.895424 328.67865 
C 187.239511 328.67865 189.487905 327.747335 191.145424 326.089816 
C 192.802944 324.432296 193.734259 322.183902 193.734259 319.839816 
C 193.734259 317.495729 192.802944 315.247335 191.145424 313.589816 
C 189.487905 311.932296 187.239511 311.000981 184.895424 311.000981 
C 182.551338 311.000981 180.302944 311.932296 178.645424 313.589816 
C 176.987905 315.247335 176.056589 317.495729 176.056589 319.839816 
C 176.056589 322.183902 176.987905 324.432296 178.645424 326.089816 
C 180.302944 327.747335 182.551338 328.67865 184.895424 328.67865 
z
" style="fill:#1e90ff;fill-opacity:0.8;stroke:#000000;stroke-opacity:0.8;"/>
    <path clip-path="url(#p17a7d03b49)" d="M 225.744403 419.739058 
C 227.841018 419.739058 229.852043 418.906065 231.334573 417.423534 
C 232.817104 415.941004 233.650098 413.929979 233.650098 411.833364 
C 233.650098 409.73675 232.817104 407.725725 231.334573 406.243194 
C 229.852043 404.760664 227.841018 403.92767 225.744403 403.92767 
C 223.647789 403.92767 221.636764 404.760664 220.154234 406.243194 
C 218.671703 407.725725 217.838709 409.73675 217.838709 411.833364 
C 217.838709 413.929979 218.671703 415.941004 220.154234 417.423534 
C 221.636764 418.906065 223.647789 419.739058 225.744403 419.739058 
z
" style="fill:#1e90ff;fill-opacity:0.8;stroke:#000000;stroke-opacity:0.8;"/>
    <path clip-path="url(#p17a7d03b49)" d="M 378.834127 505.895704 
C 379.882435 505.895704 380.887947 505.479207 381.629212 504.737942 
C 382.370478 503.996677 382.786974 502.991164 382.786974 501.942857 
C 382.786974 500.89455 382.370478 499.889037 381.629212 499.147772 
C 380.887947 498.406507 379.882435 497.99001 378.834127 497.99001 
C 377.78582 497.99001 376.780308 498.406507 376.039042 499.147772 
C 375.297777 499.889037 374.88128 500.89455 374.88128 501.942857 
C 374.88128 502.991164 375.297777 503.996677 376.039042 504.737942 
C 376.780308 505.479207 377.78582 505.895704 378.834127 505.895704 
z
" style="fill:#1e90ff;fill-opacity:0.8;stroke:#000000;stroke-opacity:0.8;"/>
    <path clip-path="url(#p17a7d03b49)" d="M 343.194395 295.479418 
C 345.762213 295.479418 348.225205 294.459213 350.040927 292.643492 
C 351.856648 290.82777 352.876853 288.364778 352.876853 285.79696 
C 352.876853 283.229142 351.856648 280.766149 350.040927 278.950428 
C 348.225205 277.134706 345.762213 276.114502 343.194395 276.114502 
C 340.626577 276.114502 338.163584 277.134706 336.347863 278.950428 
C 334.532141 280.766149 333.511936 283.229142 333.511936 285.79696 
C 333.511936 288.364778 334.532141 290.82777 336.347863 292.643492 
C 338.163584 294.459213 340.626577 295.479418 343.194395 295.479418 
z
" style="fill:#1e90ff;fill-opacity:0.8;stroke:#000000;stroke-opacity:0.8;"/>
    <path clip-path="url(#p17a7d03b49)" d="M 277.808354 226.771818 
C 279.904968 226.771818 281.915993 225.938824 283.398524 224.456294 
C 284.881054 222.973763 285.714048 220.962738 285.714048 218.866124 
C 285.714048 216.769509 284.881054 214.758484 283.398524 213.275954 
C 281.915993 211.793423 279.904968 210.96043 277.808354 210.96043 
C 275.711739 210.96043 273.700714 211.793423 272.218184 213.275954 
C 270.735654 214.758484 269.90266 216.769509 269.90266 218.866124 
C 269.90266 220.962738 270.735654 222.973763 272.218184 224.456294 
C 273.700714 225.938824 275.711739 226.771818 277.808354 226.771818 
z
" style="fill:#1e90ff;fill-opacity:0.8;stroke:#000000;stroke-opacity:0.8;"/>
    <path clip-path="url(#p17a7d03b49)" d="M 297.422245 380.54821 
C 299.766331 380.54821 302.014725 379.616895 303.672245 377.959375 
C 305.329764 376.301856 306.261079 374.053462 306.261079 371.709375 
C 306.261079 369.365289 305.329764 367.116895 303.672245 365.459375 
C 302.014725 363.801856 299.766331 362.87054 297.422245 362.87054 
C 295.078158 362.87054 292.829764 363.801856 291.172245 365.459375 
C 289.514725 367.116895 288.58341 369.365289 288.58341 371.709375 
C 288.58341 374.053462 289.514725 376.301856 291.172245 377.959375 
C 292.829764 379.616895 295.078158 380.54821 297.422245 380.54821 
z
" style="fill:#1e90ff;fill-opacity:0.8;stroke:#000000;stroke-opacity:0.8;"/>
    <path clip-path="url(#p17a7d03b49)" d="M 82.285714 369.838867 
C 83.768245 369.838867 85.190254 369.249852 86.238561 368.201545 
C 87.286869 367.153237 87.875884 365.731228 87.875884 364.248697 
C 87.875884 362.766167 87.286869 361.344158 86.238561 360.29585 
C 85.190254 359.247543 83.768245 358.658527 82.285714 358.658527 
C 80.803184 358.658527 79.381175 359.247543 78.332867 360.29585 
C 77.28456 361.344158 76.695544 362.766167 76.695544 364.248697 
C 76.695544 365.731228 77.28456 367.153237 78.332867 368.201545 
C 79.381175 369.249852 80.803184 369.838867 82.285714 369.838867 
z
" style="fill:#1e90ff;fill-opacity:0.8;stroke:#000000;stroke-opacity:0.8;"/>
   </g>
   <g id="patch_3">
    <path d="M 0 57.6 
L 576 57.6 
" style="fill:none;stroke:#000000;stroke-linecap:square;stroke-linejoin:miter;"/>
   </g>
   <g id="patch_4">
    <path d="M 576 576 
L 576 57.6 
" style="fill:none;stroke:#000000;stroke-linecap:square;stroke-linejoin:miter;"/>
   </g>
   <g id="patch_5">
    <path d="M 0 576 
L 0 57.6 
" style="fill:none;stroke:#000000;stroke-linecap:square;stroke-linejoin:miter;"/>
   </g>
   <g id="patch_6">
    <path d="M 0 576 
L 576 576 
" style="fill:none;stroke:#000000;stroke-linecap:square;stroke-linejoin:miter;"/>
   </g>
   <g id="matplotlib.axis_1">
    <g id="xtick_1">
     <g id="line2d_1">
      <defs>
       <path d="M 0 0 
L 0 -4 
" id="m47dbc2bdb1" style="stroke:#000000;stroke-width:0.5;"/>
      </defs>
      <g>
       <use style="stroke:#000000;stroke-width:0.5;" x="0.0" xlink:href="#m47dbc2bdb1" y="576.0"/>
      </g>
     </g>
     <g id="line2d_2">
      <defs>
       <path d="M 0 0 
L 0 4 
" id="m52f3516e86" style="stroke:#000000;stroke-width:0.5;"/>
      </defs>
      <g>
       <use style="stroke:#000000;stroke-width:0.5;" x="0.0" xlink:href="#m52f3516e86" y="57.6"/>
      </g>
     </g>
     <g id="text_1">
      <!-- −0.2 -->
      <defs>
       <path d="M 19.1875 8.296875 
L 53.609375 8.296875 
L 53.609375 0 
L 7.328125 0 
L 7.328125 8.296875 
Q 12.9375 14.109375 22.625 23.890625 
Q 32.328125 33.6875 34.8125 36.53125 
Q 39.546875 41.84375 41.421875 45.53125 
Q 43.3125 49.21875 43.3125 52.78125 
Q 43.3125 58.59375 39.234375 62.25 
Q 35.15625 65.921875 28.609375 65.921875 
Q 23.96875 65.921875 18.8125 64.3125 
Q 13.671875 62.703125 7.8125 59.421875 
L 7.8125 69.390625 
Q 13.765625 71.78125 18.9375 73 
Q 24.125 74.21875 28.421875 74.21875 
Q 39.75 74.21875 46.484375 68.546875 
Q 53.21875 62.890625 53.21875 53.421875 
Q 53.21875 48.921875 51.53125 44.890625 
Q 49.859375 40.875 45.40625 35.40625 
Q 44.1875 33.984375 37.640625 27.21875 
Q 31.109375 20.453125 19.1875 8.296875 
" id="BitstreamVeraSans-Roman-32"/>
       <path d="M 31.78125 66.40625 
Q 24.171875 66.40625 20.328125 58.90625 
Q 16.5 51.421875 16.5 36.375 
Q 16.5 21.390625 20.328125 13.890625 
Q 24.171875 6.390625 31.78125 6.390625 
Q 39.453125 6.390625 43.28125 13.890625 
Q 47.125 21.390625 47.125 36.375 
Q 47.125 51.421875 43.28125 58.90625 
Q 39.453125 66.40625 31.78125 66.40625 
M 31.78125 74.21875 
Q 44.046875 74.21875 50.515625 64.515625 
Q 56.984375 54.828125 56.984375 36.375 
Q 56.984375 17.96875 50.515625 8.265625 
Q 44.046875 -1.421875 31.78125 -1.421875 
Q 19.53125 -1.421875 13.0625 8.265625 
Q 6.59375 17.96875 6.59375 36.375 
Q 6.59375 54.828125 13.0625 64.515625 
Q 19.53125 74.21875 31.78125 74.21875 
" id="BitstreamVeraSans-Roman-30"/>
       <path d="M 10.59375 35.5 
L 73.1875 35.5 
L 73.1875 27.203125 
L 10.59375 27.203125 
z
" id="BitstreamVeraSans-Roman-2212"/>
       <path d="M 10.6875 12.40625 
L 21 12.40625 
L 21 0 
L 10.6875 0 
z
" id="BitstreamVeraSans-Roman-2e"/>
      </defs>
      <g transform="translate(-12.14140625 587.5984375)scale(0.1 -0.1)">
       <use xlink:href="#BitstreamVeraSans-Roman-2212"/>
       <use x="83.7890625" xlink:href="#BitstreamVeraSans-Roman-30"/>
       <use x="147.412109375" xlink:href="#BitstreamVeraSans-Roman-2e"/>
       <use x="179.19921875" xlink:href="#BitstreamVeraSans-Roman-32"/>
      </g>
     </g>
    </g>
    <g id="xtick_2">
     <g id="line2d_3">
      <g>
       <use style="stroke:#000000;stroke-width:0.5;" x="82.2857142857" xlink:href="#m47dbc2bdb1" y="576.0"/>
      </g>
     </g>
     <g id="line2d_4">
      <g>
       <use style="stroke:#000000;stroke-width:0.5;" x="82.2857142857" xlink:href="#m52f3516e86" y="57.6"/>
      </g>
     </g>
     <g id="text_2">
      <!-- 0.0 -->
      <g transform="translate(74.3341517857 587.5984375)scale(0.1 -0.1)">
       <use xlink:href="#BitstreamVeraSans-Roman-30"/>
       <use x="63.623046875" xlink:href="#BitstreamVeraSans-Roman-2e"/>
       <use x="95.41015625" xlink:href="#BitstreamVeraSans-Roman-30"/>
      </g>
     </g>
    </g>
    <g id="xtick_3">
     <g id="line2d_5">
      <g>
       <use style="stroke:#000000;stroke-width:0.5;" x="164.571428571" xlink:href="#m47dbc2bdb1" y="576.0"/>
      </g>
     </g>
     <g id="line2d_6">
      <g>
       <use style="stroke:#000000;stroke-width:0.5;" x="164.571428571" xlink:href="#m52f3516e86" y="57.6"/>
      </g>
     </g>
     <g id="text_3">
      <!-- 0.2 -->
      <g transform="translate(156.619866071 587.5984375)scale(0.1 -0.1)">
       <use xlink:href="#BitstreamVeraSans-Roman-30"/>
       <use x="63.623046875" xlink:href="#BitstreamVeraSans-Roman-2e"/>
       <use x="95.41015625" xlink:href="#BitstreamVeraSans-Roman-32"/>
      </g>
     </g>
    </g>
    <g id="xtick_4">
     <g id="line2d_7">
      <g>
       <use style="stroke:#000000;stroke-width:0.5;" x="246.857142857" xlink:href="#m47dbc2bdb1" y="576.0"/>
      </g>
     </g>
     <g id="line2d_8">
      <g>
       <use style="stroke:#000000;stroke-width:0.5;" x="246.857142857" xlink:href="#m52f3516e86" y="57.6"/>
      </g>
     </g>
     <g id="text_4">
      <!-- 0.4 -->
      <defs>
       <path d="M 37.796875 64.3125 
L 12.890625 25.390625 
L 37.796875 25.390625 
z
M 35.203125 72.90625 
L 47.609375 72.90625 
L 47.609375 25.390625 
L 58.015625 25.390625 
L 58.015625 17.1875 
L 47.609375 17.1875 
L 47.609375 0 
L 37.796875 0 
L 37.796875 17.1875 
L 4.890625 17.1875 
L 4.890625 26.703125 
z
" id="BitstreamVeraSans-Roman-34"/>
      </defs>
      <g transform="translate(238.905580357 587.5984375)scale(0.1 -0.1)">
       <use xlink:href="#BitstreamVeraSans-Roman-30"/>
       <use x="63.623046875" xlink:href="#BitstreamVeraSans-Roman-2e"/>
       <use x="95.41015625" xlink:href="#BitstreamVeraSans-Roman-34"/>
      </g>
     </g>
    </g>
    <g id="xtick_5">
     <g id="line2d_9">
      <g>
       <use style="stroke:#000000;stroke-width:0.5;" x="329.142857143" xlink:href="#m47dbc2bdb1" y="576.0"/>
      </g>
     </g>
     <g id="line2d_10">
      <g>
       <use style="stroke:#000000;stroke-width:0.5;" x="329.142857143" xlink:href="#m52f3516e86" y="57.6"/>
      </g>
     </g>
     <g id="text_5">
      <!-- 0.6 -->
      <defs>
       <path d="M 33.015625 40.375 
Q 26.375 40.375 22.484375 35.828125 
Q 18.609375 31.296875 18.609375 23.390625 
Q 18.609375 15.53125 22.484375 10.953125 
Q 26.375 6.390625 33.015625 6.390625 
Q 39.65625 6.390625 43.53125 10.953125 
Q 47.40625 15.53125 47.40625 23.390625 
Q 47.40625 31.296875 43.53125 35.828125 
Q 39.65625 40.375 33.015625 40.375 
M 52.59375 71.296875 
L 52.59375 62.3125 
Q 48.875 64.0625 45.09375 64.984375 
Q 41.3125 65.921875 37.59375 65.921875 
Q 27.828125 65.921875 22.671875 59.328125 
Q 17.53125 52.734375 16.796875 39.40625 
Q 19.671875 43.65625 24.015625 45.921875 
Q 28.375 48.1875 33.59375 48.1875 
Q 44.578125 48.1875 50.953125 41.515625 
Q 57.328125 34.859375 57.328125 23.390625 
Q 57.328125 12.15625 50.6875 5.359375 
Q 44.046875 -1.421875 33.015625 -1.421875 
Q 20.359375 -1.421875 13.671875 8.265625 
Q 6.984375 17.96875 6.984375 36.375 
Q 6.984375 53.65625 15.1875 63.9375 
Q 23.390625 74.21875 37.203125 74.21875 
Q 40.921875 74.21875 44.703125 73.484375 
Q 48.484375 72.75 52.59375 71.296875 
" id="BitstreamVeraSans-Roman-36"/>
      </defs>
      <g transform="translate(321.191294643 587.5984375)scale(0.1 -0.1)">
       <use xlink:href="#BitstreamVeraSans-Roman-30"/>
       <use x="63.623046875" xlink:href="#BitstreamVeraSans-Roman-2e"/>
       <use x="95.41015625" xlink:href="#BitstreamVeraSans-Roman-36"/>
      </g>
     </g>
    </g>
    <g id="xtick_6">
     <g id="line2d_11">
      <g>
       <use style="stroke:#000000;stroke-width:0.5;" x="411.428571429" xlink:href="#m47dbc2bdb1" y="576.0"/>
      </g>
     </g>
     <g id="line2d_12">
      <g>
       <use style="stroke:#000000;stroke-width:0.5;" x="411.428571429" xlink:href="#m52f3516e86" y="57.6"/>
      </g>
     </g>
     <g id="text_6">
      <!-- 0.8 -->
      <defs>
       <path d="M 31.78125 34.625 
Q 24.75 34.625 20.71875 30.859375 
Q 16.703125 27.09375 16.703125 20.515625 
Q 16.703125 13.921875 20.71875 10.15625 
Q 24.75 6.390625 31.78125 6.390625 
Q 38.8125 6.390625 42.859375 10.171875 
Q 46.921875 13.96875 46.921875 20.515625 
Q 46.921875 27.09375 42.890625 30.859375 
Q 38.875 34.625 31.78125 34.625 
M 21.921875 38.8125 
Q 15.578125 40.375 12.03125 44.71875 
Q 8.5 49.078125 8.5 55.328125 
Q 8.5 64.0625 14.71875 69.140625 
Q 20.953125 74.21875 31.78125 74.21875 
Q 42.671875 74.21875 48.875 69.140625 
Q 55.078125 64.0625 55.078125 55.328125 
Q 55.078125 49.078125 51.53125 44.71875 
Q 48 40.375 41.703125 38.8125 
Q 48.828125 37.15625 52.796875 32.3125 
Q 56.78125 27.484375 56.78125 20.515625 
Q 56.78125 9.90625 50.3125 4.234375 
Q 43.84375 -1.421875 31.78125 -1.421875 
Q 19.734375 -1.421875 13.25 4.234375 
Q 6.78125 9.90625 6.78125 20.515625 
Q 6.78125 27.484375 10.78125 32.3125 
Q 14.796875 37.15625 21.921875 38.8125 
M 18.3125 54.390625 
Q 18.3125 48.734375 21.84375 45.5625 
Q 25.390625 42.390625 31.78125 42.390625 
Q 38.140625 42.390625 41.71875 45.5625 
Q 45.3125 48.734375 45.3125 54.390625 
Q 45.3125 60.0625 41.71875 63.234375 
Q 38.140625 66.40625 31.78125 66.40625 
Q 25.390625 66.40625 21.84375 63.234375 
Q 18.3125 60.0625 18.3125 54.390625 
" id="BitstreamVeraSans-Roman-38"/>
      </defs>
      <g transform="translate(403.477008929 587.5984375)scale(0.1 -0.1)">
       <use xlink:href="#BitstreamVeraSans-Roman-30"/>
       <use x="63.623046875" xlink:href="#BitstreamVeraSans-Roman-2e"/>
       <use x="95.41015625" xlink:href="#BitstreamVeraSans-Roman-38"/>
      </g>
     </g>
    </g>
    <g id="xtick_7">
     <g id="line2d_13">
      <g>
       <use style="stroke:#000000;stroke-width:0.5;" x="493.714285714" xlink:href="#m47dbc2bdb1" y="576.0"/>
      </g>
     </g>
     <g id="line2d_14">
      <g>
       <use style="stroke:#000000;stroke-width:0.5;" x="493.714285714" xlink:href="#m52f3516e86" y="57.6"/>
      </g>
     </g>
     <g id="text_7">
      <!-- 1.0 -->
      <defs>
       <path d="M 12.40625 8.296875 
L 28.515625 8.296875 
L 28.515625 63.921875 
L 10.984375 60.40625 
L 10.984375 69.390625 
L 28.421875 72.90625 
L 38.28125 72.90625 
L 38.28125 8.296875 
L 54.390625 8.296875 
L 54.390625 0 
L 12.40625 0 
z
" id="BitstreamVeraSans-Roman-31"/>
      </defs>
      <g transform="translate(485.762723214 587.5984375)scale(0.1 -0.1)">
       <use xlink:href="#BitstreamVeraSans-Roman-31"/>
       <use x="63.623046875" xlink:href="#BitstreamVeraSans-Roman-2e"/>
       <use x="95.41015625" xlink:href="#BitstreamVeraSans-Roman-30"/>
      </g>
     </g>
    </g>
    <g id="xtick_8">
     <g id="line2d_15">
      <g>
       <use style="stroke:#000000;stroke-width:0.5;" x="576.0" xlink:href="#m47dbc2bdb1" y="576.0"/>
      </g>
     </g>
     <g id="line2d_16">
      <g>
       <use style="stroke:#000000;stroke-width:0.5;" x="576.0" xlink:href="#m52f3516e86" y="57.6"/>
      </g>
     </g>
     <g id="text_8">
      <!-- 1.2 -->
      <g transform="translate(568.0484375 587.5984375)scale(0.1 -0.1)">
       <use xlink:href="#BitstreamVeraSans-Roman-31"/>
       <use x="63.623046875" xlink:href="#BitstreamVeraSans-Roman-2e"/>
       <use x="95.41015625" xlink:href="#BitstreamVeraSans-Roman-32"/>
      </g>
     </g>
    </g>
   </g>
   <g id="matplotlib.axis_2">
    <g id="ytick_1">
     <g id="line2d_17">
      <defs>
       <path d="M 0 0 
L 4 0 
" id="mf16353a786" style="stroke:#000000;stroke-width:0.5;"/>
      </defs>
      <g>
       <use style="stroke:#000000;stroke-width:0.5;" x="0.0" xlink:href="#mf16353a786" y="576.0"/>
      </g>
     </g>
     <g id="line2d_18">
      <defs>
       <path d="M 0 0 
L -4 0 
" id="md22d63b9a2" style="stroke:#000000;stroke-width:0.5;"/>
      </defs>
      <g>
       <use style="stroke:#000000;stroke-width:0.5;" x="576.0" xlink:href="#md22d63b9a2" y="576.0"/>
      </g>
     </g>
     <g id="text_9">
      <!-- −0.2 -->
      <g transform="translate(-28.2828125 578.759375)scale(0.1 -0.1)">
       <use xlink:href="#BitstreamVeraSans-Roman-2212"/>
       <use x="83.7890625" xlink:href="#BitstreamVeraSans-Roman-30"/>
       <use x="147.412109375" xlink:href="#BitstreamVeraSans-Roman-2e"/>
       <use x="179.19921875" xlink:href="#BitstreamVeraSans-Roman-32"/>
      </g>
     </g>
    </g>
    <g id="ytick_2">
     <g id="line2d_19">
      <g>
       <use style="stroke:#000000;stroke-width:0.5;" x="0.0" xlink:href="#mf16353a786" y="501.942857143"/>
      </g>
     </g>
     <g id="line2d_20">
      <g>
       <use style="stroke:#000000;stroke-width:0.5;" x="576.0" xlink:href="#md22d63b9a2" y="501.942857143"/>
      </g>
     </g>
     <g id="text_10">
      <!-- 0.0 -->
      <g transform="translate(-19.903125 504.702232143)scale(0.1 -0.1)">
       <use xlink:href="#BitstreamVeraSans-Roman-30"/>
       <use x="63.623046875" xlink:href="#BitstreamVeraSans-Roman-2e"/>
       <use x="95.41015625" xlink:href="#BitstreamVeraSans-Roman-30"/>
      </g>
     </g>
    </g>
    <g id="ytick_3">
     <g id="line2d_21">
      <g>
       <use style="stroke:#000000;stroke-width:0.5;" x="0.0" xlink:href="#mf16353a786" y="427.885714286"/>
      </g>
     </g>
     <g id="line2d_22">
      <g>
       <use style="stroke:#000000;stroke-width:0.5;" x="576.0" xlink:href="#md22d63b9a2" y="427.885714286"/>
      </g>
     </g>
     <g id="text_11">
      <!-- 0.2 -->
      <g transform="translate(-19.903125 430.645089286)scale(0.1 -0.1)">
       <use xlink:href="#BitstreamVeraSans-Roman-30"/>
       <use x="63.623046875" xlink:href="#BitstreamVeraSans-Roman-2e"/>
       <use x="95.41015625" xlink:href="#BitstreamVeraSans-Roman-32"/>
      </g>
     </g>
    </g>
    <g id="ytick_4">
     <g id="line2d_23">
      <g>
       <use style="stroke:#000000;stroke-width:0.5;" x="0.0" xlink:href="#mf16353a786" y="353.828571429"/>
      </g>
     </g>
     <g id="line2d_24">
      <g>
       <use style="stroke:#000000;stroke-width:0.5;" x="576.0" xlink:href="#md22d63b9a2" y="353.828571429"/>
      </g>
     </g>
     <g id="text_12">
      <!-- 0.4 -->
      <g transform="translate(-19.903125 356.587946429)scale(0.1 -0.1)">
       <use xlink:href="#BitstreamVeraSans-Roman-30"/>
       <use x="63.623046875" xlink:href="#BitstreamVeraSans-Roman-2e"/>
       <use x="95.41015625" xlink:href="#BitstreamVeraSans-Roman-34"/>
      </g>
     </g>
    </g>
    <g id="ytick_5">
     <g id="line2d_25">
      <g>
       <use style="stroke:#000000;stroke-width:0.5;" x="0.0" xlink:href="#mf16353a786" y="279.771428571"/>
      </g>
     </g>
     <g id="line2d_26">
      <g>
       <use style="stroke:#000000;stroke-width:0.5;" x="576.0" xlink:href="#md22d63b9a2" y="279.771428571"/>
      </g>
     </g>
     <g id="text_13">
      <!-- 0.6 -->
      <g transform="translate(-19.903125 282.530803571)scale(0.1 -0.1)">
       <use xlink:href="#BitstreamVeraSans-Roman-30"/>
       <use x="63.623046875" xlink:href="#BitstreamVeraSans-Roman-2e"/>
       <use x="95.41015625" xlink:href="#BitstreamVeraSans-Roman-36"/>
      </g>
     </g>
    </g>
    <g id="ytick_6">
     <g id="line2d_27">
      <g>
       <use style="stroke:#000000;stroke-width:0.5;" x="0.0" xlink:href="#mf16353a786" y="205.714285714"/>
      </g>
     </g>
     <g id="line2d_28">
      <g>
       <use style="stroke:#000000;stroke-width:0.5;" x="576.0" xlink:href="#md22d63b9a2" y="205.714285714"/>
      </g>
     </g>
     <g id="text_14">
      <!-- 0.8 -->
      <g transform="translate(-19.903125 208.473660714)scale(0.1 -0.1)">
       <use xlink:href="#BitstreamVeraSans-Roman-30"/>
       <use x="63.623046875" xlink:href="#BitstreamVeraSans-Roman-2e"/>
       <use x="95.41015625" xlink:href="#BitstreamVeraSans-Roman-38"/>
      </g>
     </g>
    </g>
    <g id="ytick_7">
     <g id="line2d_29">
      <g>
       <use style="stroke:#000000;stroke-width:0.5;" x="0.0" xlink:href="#mf16353a786" y="131.657142857"/>
      </g>
     </g>
     <g id="line2d_30">
      <g>
       <use style="stroke:#000000;stroke-width:0.5;" x="576.0" xlink:href="#md22d63b9a2" y="131.657142857"/>
      </g>
     </g>
     <g id="text_15">
      <!-- 1.0 -->
      <g transform="translate(-19.903125 134.416517857)scale(0.1 -0.1)">
       <use xlink:href="#BitstreamVeraSans-Roman-31"/>
       <use x="63.623046875" xlink:href="#BitstreamVeraSans-Roman-2e"/>
       <use x="95.41015625" xlink:href="#BitstreamVeraSans-Roman-30"/>
      </g>
     </g>
    </g>
    <g id="ytick_8">
     <g id="line2d_31">
      <g>
       <use style="stroke:#000000;stroke-width:0.5;" x="0.0" xlink:href="#mf16353a786" y="57.6"/>
      </g>
     </g>
     <g id="line2d_32">
      <g>
       <use style="stroke:#000000;stroke-width:0.5;" x="576.0" xlink:href="#md22d63b9a2" y="57.6"/>
      </g>
     </g>
     <g id="text_16">
      <!-- 1.2 -->
      <g transform="translate(-19.903125 60.359375)scale(0.1 -0.1)">
       <use xlink:href="#BitstreamVeraSans-Roman-31"/>
       <use x="63.623046875" xlink:href="#BitstreamVeraSans-Roman-2e"/>
       <use x="95.41015625" xlink:href="#BitstreamVeraSans-Roman-32"/>
      </g>
     </g>
    </g>
   </g>
   <g id="text_17">
    <g clip-path="url(#p17a7d03b49)">
     <!-- ISMENE -->
     <defs>
      <path d="M 53.515625 70.515625 
L 53.515625 60.890625 
Q 47.90625 63.578125 42.921875 64.890625 
Q 37.9375 66.21875 33.296875 66.21875 
Q 25.25 66.21875 20.875 63.09375 
Q 16.5 59.96875 16.5 54.203125 
Q 16.5 49.359375 19.40625 46.890625 
Q 22.3125 44.4375 30.421875 42.921875 
L 36.375 41.703125 
Q 47.40625 39.59375 52.65625 34.296875 
Q 57.90625 29 57.90625 20.125 
Q 57.90625 9.515625 50.796875 4.046875 
Q 43.703125 -1.421875 29.984375 -1.421875 
Q 24.8125 -1.421875 18.96875 -0.25 
Q 13.140625 0.921875 6.890625 3.21875 
L 6.890625 13.375 
Q 12.890625 10.015625 18.65625 8.296875 
Q 24.421875 6.59375 29.984375 6.59375 
Q 38.421875 6.59375 43.015625 9.90625 
Q 47.609375 13.234375 47.609375 19.390625 
Q 47.609375 24.75 44.3125 27.78125 
Q 41.015625 30.8125 33.5 32.328125 
L 27.484375 33.5 
Q 16.453125 35.6875 11.515625 40.375 
Q 6.59375 45.0625 6.59375 53.421875 
Q 6.59375 63.09375 13.40625 68.65625 
Q 20.21875 74.21875 32.171875 74.21875 
Q 37.3125 74.21875 42.625 73.28125 
Q 47.953125 72.359375 53.515625 70.515625 
" id="BitstreamVeraSans-Roman-53"/>
      <path d="M 9.8125 72.90625 
L 55.90625 72.90625 
L 55.90625 64.59375 
L 19.671875 64.59375 
L 19.671875 43.015625 
L 54.390625 43.015625 
L 54.390625 34.71875 
L 19.671875 34.71875 
L 19.671875 8.296875 
L 56.78125 8.296875 
L 56.78125 0 
L 9.8125 0 
z
" id="BitstreamVeraSans-Roman-45"/>
      <path d="M 9.8125 72.90625 
L 24.515625 72.90625 
L 43.109375 23.296875 
L 61.8125 72.90625 
L 76.515625 72.90625 
L 76.515625 0 
L 66.890625 0 
L 66.890625 64.015625 
L 48.09375 14.015625 
L 38.1875 14.015625 
L 19.390625 64.015625 
L 19.390625 0 
L 9.8125 0 
z
" id="BitstreamVeraSans-Roman-4d"/>
      <path d="M 9.8125 72.90625 
L 23.09375 72.90625 
L 55.421875 11.921875 
L 55.421875 72.90625 
L 64.984375 72.90625 
L 64.984375 0 
L 51.703125 0 
L 19.390625 60.984375 
L 19.390625 0 
L 9.8125 0 
z
" id="BitstreamVeraSans-Roman-4e"/>
      <path d="M 9.8125 72.90625 
L 19.671875 72.90625 
L 19.671875 0 
L 9.8125 0 
z
" id="BitstreamVeraSans-Roman-49"/>
     </defs>
     <g transform="translate(288.052067488 134.968392857)scale(0.12 -0.12)">
      <use xlink:href="#BitstreamVeraSans-Roman-49"/>
      <use x="29.4921875" xlink:href="#BitstreamVeraSans-Roman-53"/>
      <use x="92.96875" xlink:href="#BitstreamVeraSans-Roman-4d"/>
      <use x="179.248046875" xlink:href="#BitstreamVeraSans-Roman-45"/>
      <use x="242.431640625" xlink:href="#BitstreamVeraSans-Roman-4e"/>
      <use x="317.236328125" xlink:href="#BitstreamVeraSans-Roman-45"/>
     </g>
    </g>
   </g>
   <g id="text_18">
    <g clip-path="url(#p17a7d03b49)">
     <!-- PYLADE -->
     <defs>
      <path d="M 9.8125 72.90625 
L 19.671875 72.90625 
L 19.671875 8.296875 
L 55.171875 8.296875 
L 55.171875 0 
L 9.8125 0 
z
" id="BitstreamVeraSans-Roman-4c"/>
      <path d="M 19.671875 64.796875 
L 19.671875 37.40625 
L 32.078125 37.40625 
Q 38.96875 37.40625 42.71875 40.96875 
Q 46.484375 44.53125 46.484375 51.125 
Q 46.484375 57.671875 42.71875 61.234375 
Q 38.96875 64.796875 32.078125 64.796875 
z
M 9.8125 72.90625 
L 32.078125 72.90625 
Q 44.34375 72.90625 50.609375 67.359375 
Q 56.890625 61.8125 56.890625 51.125 
Q 56.890625 40.328125 50.609375 34.8125 
Q 44.34375 29.296875 32.078125 29.296875 
L 19.671875 29.296875 
L 19.671875 0 
L 9.8125 0 
z
" id="BitstreamVeraSans-Roman-50"/>
      <path d="M 19.671875 64.796875 
L 19.671875 8.109375 
L 31.59375 8.109375 
Q 46.6875 8.109375 53.6875 14.9375 
Q 60.6875 21.78125 60.6875 36.53125 
Q 60.6875 51.171875 53.6875 57.984375 
Q 46.6875 64.796875 31.59375 64.796875 
z
M 9.8125 72.90625 
L 30.078125 72.90625 
Q 51.265625 72.90625 61.171875 64.09375 
Q 71.09375 55.28125 71.09375 36.53125 
Q 71.09375 17.671875 61.125 8.828125 
Q 51.171875 0 30.078125 0 
L 9.8125 0 
z
" id="BitstreamVeraSans-Roman-44"/>
      <path d="M 34.1875 63.1875 
L 20.796875 26.90625 
L 47.609375 26.90625 
z
M 28.609375 72.90625 
L 39.796875 72.90625 
L 67.578125 0 
L 57.328125 0 
L 50.6875 18.703125 
L 17.828125 18.703125 
L 11.1875 0 
L 0.78125 0 
z
" id="BitstreamVeraSans-Roman-41"/>
      <path d="M -0.203125 72.90625 
L 10.40625 72.90625 
L 30.609375 42.921875 
L 50.6875 72.90625 
L 61.28125 72.90625 
L 35.5 34.71875 
L 35.5 0 
L 25.59375 0 
L 25.59375 34.71875 
z
" id="BitstreamVeraSans-Roman-59"/>
     </defs>
     <g transform="translate(463.65648368 265.580356324)scale(0.12 -0.12)">
      <use xlink:href="#BitstreamVeraSans-Roman-50"/>
      <use x="60.271484375" xlink:href="#BitstreamVeraSans-Roman-59"/>
      <use x="121.35546875" xlink:href="#BitstreamVeraSans-Roman-4c"/>
      <use x="177.099609375" xlink:href="#BitstreamVeraSans-Roman-41"/>
      <use x="245.5078125" xlink:href="#BitstreamVeraSans-Roman-44"/>
      <use x="322.509765625" xlink:href="#BitstreamVeraSans-Roman-45"/>
     </g>
    </g>
   </g>
   <g id="text_19">
    <g clip-path="url(#p17a7d03b49)">
     <!-- AGAMEMNON -->
     <defs>
      <path d="M 59.515625 10.40625 
L 59.515625 29.984375 
L 43.40625 29.984375 
L 43.40625 38.09375 
L 69.28125 38.09375 
L 69.28125 6.78125 
Q 63.578125 2.734375 56.6875 0.65625 
Q 49.8125 -1.421875 42 -1.421875 
Q 24.90625 -1.421875 15.25 8.5625 
Q 5.609375 18.5625 5.609375 36.375 
Q 5.609375 54.25 15.25 64.234375 
Q 24.90625 74.21875 42 74.21875 
Q 49.125 74.21875 55.546875 72.453125 
Q 61.96875 70.703125 67.390625 67.28125 
L 67.390625 56.78125 
Q 61.921875 61.421875 55.765625 63.765625 
Q 49.609375 66.109375 42.828125 66.109375 
Q 29.4375 66.109375 22.71875 58.640625 
Q 16.015625 51.171875 16.015625 36.375 
Q 16.015625 21.625 22.71875 14.15625 
Q 29.4375 6.6875 42.828125 6.6875 
Q 48.046875 6.6875 52.140625 7.59375 
Q 56.25 8.5 59.515625 10.40625 
" id="BitstreamVeraSans-Roman-47"/>
      <path d="M 39.40625 66.21875 
Q 28.65625 66.21875 22.328125 58.203125 
Q 16.015625 50.203125 16.015625 36.375 
Q 16.015625 22.609375 22.328125 14.59375 
Q 28.65625 6.59375 39.40625 6.59375 
Q 50.140625 6.59375 56.421875 14.59375 
Q 62.703125 22.609375 62.703125 36.375 
Q 62.703125 50.203125 56.421875 58.203125 
Q 50.140625 66.21875 39.40625 66.21875 
M 39.40625 74.21875 
Q 54.734375 74.21875 63.90625 63.9375 
Q 73.09375 53.65625 73.09375 36.375 
Q 73.09375 19.140625 63.90625 8.859375 
Q 54.734375 -1.421875 39.40625 -1.421875 
Q 24.03125 -1.421875 14.8125 8.828125 
Q 5.609375 19.09375 5.609375 36.375 
Q 5.609375 53.65625 14.8125 63.9375 
Q 24.03125 74.21875 39.40625 74.21875 
" id="BitstreamVeraSans-Roman-4f"/>
     </defs>
     <g transform="translate(256.719744667 375.020625235)scale(0.12 -0.12)">
      <use xlink:href="#BitstreamVeraSans-Roman-41"/>
      <use x="68.392578125" xlink:href="#BitstreamVeraSans-Roman-47"/>
      <use x="145.8828125" xlink:href="#BitstreamVeraSans-Roman-41"/>
      <use x="214.291015625" xlink:href="#BitstreamVeraSans-Roman-4d"/>
      <use x="300.5703125" xlink:href="#BitstreamVeraSans-Roman-45"/>
      <use x="363.75390625" xlink:href="#BitstreamVeraSans-Roman-4d"/>
      <use x="450.033203125" xlink:href="#BitstreamVeraSans-Roman-4e"/>
      <use x="524.837890625" xlink:href="#BitstreamVeraSans-Roman-4f"/>
      <use x="603.548828125" xlink:href="#BitstreamVeraSans-Roman-4e"/>
     </g>
    </g>
   </g>
   <g id="text_20">
    <g clip-path="url(#p17a7d03b49)">
     <!-- EURYBATE -->
     <defs>
      <path d="M -0.296875 72.90625 
L 61.375 72.90625 
L 61.375 64.59375 
L 35.5 64.59375 
L 35.5 0 
L 25.59375 0 
L 25.59375 64.59375 
L -0.296875 64.59375 
z
" id="BitstreamVeraSans-Roman-54"/>
      <path d="M 19.671875 34.8125 
L 19.671875 8.109375 
L 35.5 8.109375 
Q 43.453125 8.109375 47.28125 11.40625 
Q 51.125 14.703125 51.125 21.484375 
Q 51.125 28.328125 47.28125 31.5625 
Q 43.453125 34.8125 35.5 34.8125 
z
M 19.671875 64.796875 
L 19.671875 42.828125 
L 34.28125 42.828125 
Q 41.5 42.828125 45.03125 45.53125 
Q 48.578125 48.25 48.578125 53.8125 
Q 48.578125 59.328125 45.03125 62.0625 
Q 41.5 64.796875 34.28125 64.796875 
z
M 9.8125 72.90625 
L 35.015625 72.90625 
Q 46.296875 72.90625 52.390625 68.21875 
Q 58.5 63.53125 58.5 54.890625 
Q 58.5 48.1875 55.375 44.234375 
Q 52.25 40.28125 46.1875 39.3125 
Q 53.46875 37.75 57.5 32.78125 
Q 61.53125 27.828125 61.53125 20.40625 
Q 61.53125 10.640625 54.890625 5.3125 
Q 48.25 0 35.984375 0 
L 9.8125 0 
z
" id="BitstreamVeraSans-Roman-42"/>
      <path d="M 44.390625 34.1875 
Q 47.5625 33.109375 50.5625 29.59375 
Q 53.5625 26.078125 56.59375 19.921875 
L 66.609375 0 
L 56 0 
L 46.6875 18.703125 
Q 43.0625 26.03125 39.671875 28.421875 
Q 36.28125 30.8125 30.421875 30.8125 
L 19.671875 30.8125 
L 19.671875 0 
L 9.8125 0 
L 9.8125 72.90625 
L 32.078125 72.90625 
Q 44.578125 72.90625 50.734375 67.671875 
Q 56.890625 62.453125 56.890625 51.90625 
Q 56.890625 45.015625 53.6875 40.46875 
Q 50.484375 35.9375 44.390625 34.1875 
M 19.671875 64.796875 
L 19.671875 38.921875 
L 32.078125 38.921875 
Q 39.203125 38.921875 42.84375 42.21875 
Q 46.484375 45.515625 46.484375 51.90625 
Q 46.484375 58.296875 42.84375 61.546875 
Q 39.203125 64.796875 32.078125 64.796875 
z
" id="BitstreamVeraSans-Roman-52"/>
      <path d="M 8.6875 72.90625 
L 18.609375 72.90625 
L 18.609375 28.609375 
Q 18.609375 16.890625 22.84375 11.734375 
Q 27.09375 6.59375 36.625 6.59375 
Q 46.09375 6.59375 50.34375 11.734375 
Q 54.59375 16.890625 54.59375 28.609375 
L 54.59375 72.90625 
L 64.5 72.90625 
L 64.5 27.390625 
Q 64.5 13.140625 57.4375 5.859375 
Q 50.390625 -1.421875 36.625 -1.421875 
Q 22.796875 -1.421875 15.734375 5.859375 
Q 8.6875 13.140625 8.6875 27.390625 
z
" id="BitstreamVeraSans-Roman-55"/>
     </defs>
     <g transform="translate(194.063465957 415.144614166)scale(0.12 -0.12)">
      <use xlink:href="#BitstreamVeraSans-Roman-45"/>
      <use x="63.18359375" xlink:href="#BitstreamVeraSans-Roman-55"/>
      <use x="136.376953125" xlink:href="#BitstreamVeraSans-Roman-52"/>
      <use x="205.765625" xlink:href="#BitstreamVeraSans-Roman-59"/>
      <use x="266.849609375" xlink:href="#BitstreamVeraSans-Roman-42"/>
      <use x="335.453125" xlink:href="#BitstreamVeraSans-Roman-41"/>
      <use x="403.751953125" xlink:href="#BitstreamVeraSans-Roman-54"/>
      <use x="464.8359375" xlink:href="#BitstreamVeraSans-Roman-45"/>
     </g>
    </g>
   </g>
   <g id="text_21">
    <g clip-path="url(#p17a7d03b49)">
     <!-- ARBAS -->
     <g transform="translate(358.530689862 505.254107143)scale(0.12 -0.12)">
      <use xlink:href="#BitstreamVeraSans-Roman-41"/>
      <use x="68.408203125" xlink:href="#BitstreamVeraSans-Roman-52"/>
      <use x="137.890625" xlink:href="#BitstreamVeraSans-Roman-42"/>
      <use x="206.494140625" xlink:href="#BitstreamVeraSans-Roman-41"/>
      <use x="274.90234375" xlink:href="#BitstreamVeraSans-Roman-53"/>
     </g>
    </g>
   </g>
   <g id="text_22">
    <g clip-path="url(#p17a7d03b49)">
     <!-- ORESTE -->
     <g transform="translate(319.245957323 289.108209887)scale(0.12 -0.12)">
      <use xlink:href="#BitstreamVeraSans-Roman-4f"/>
      <use x="78.7109375" xlink:href="#BitstreamVeraSans-Roman-52"/>
      <use x="148.193359375" xlink:href="#BitstreamVeraSans-Roman-45"/>
      <use x="211.376953125" xlink:href="#BitstreamVeraSans-Roman-53"/>
      <use x="274.853515625" xlink:href="#BitstreamVeraSans-Roman-54"/>
      <use x="335.9375" xlink:href="#BitstreamVeraSans-Roman-45"/>
     </g>
    </g>
   </g>
   <g id="text_23">
    <g clip-path="url(#p17a7d03b49)">
     <!-- CASSANDRE -->
     <defs>
      <path d="M 64.40625 67.28125 
L 64.40625 56.890625 
Q 59.421875 61.53125 53.78125 63.8125 
Q 48.140625 66.109375 41.796875 66.109375 
Q 29.296875 66.109375 22.65625 58.46875 
Q 16.015625 50.828125 16.015625 36.375 
Q 16.015625 21.96875 22.65625 14.328125 
Q 29.296875 6.6875 41.796875 6.6875 
Q 48.140625 6.6875 53.78125 8.984375 
Q 59.421875 11.28125 64.40625 15.921875 
L 64.40625 5.609375 
Q 59.234375 2.09375 53.4375 0.328125 
Q 47.65625 -1.421875 41.21875 -1.421875 
Q 24.65625 -1.421875 15.125 8.703125 
Q 5.609375 18.84375 5.609375 36.375 
Q 5.609375 53.953125 15.125 64.078125 
Q 24.65625 74.21875 41.21875 74.21875 
Q 47.75 74.21875 53.53125 72.484375 
Q 59.328125 70.75 64.40625 67.28125 
" id="BitstreamVeraSans-Roman-43"/>
     </defs>
     <g transform="translate(240.72179138 222.17737374)scale(0.12 -0.12)">
      <use xlink:href="#BitstreamVeraSans-Roman-43"/>
      <use x="69.82421875" xlink:href="#BitstreamVeraSans-Roman-41"/>
      <use x="138.232421875" xlink:href="#BitstreamVeraSans-Roman-53"/>
      <use x="201.708984375" xlink:href="#BitstreamVeraSans-Roman-53"/>
      <use x="265.201171875" xlink:href="#BitstreamVeraSans-Roman-41"/>
      <use x="333.609375" xlink:href="#BitstreamVeraSans-Roman-4e"/>
      <use x="408.4140625" xlink:href="#BitstreamVeraSans-Roman-44"/>
      <use x="485.416015625" xlink:href="#BitstreamVeraSans-Roman-52"/>
      <use x="554.8984375" xlink:href="#BitstreamVeraSans-Roman-45"/>
     </g>
    </g>
   </g>
   <g id="text_24">
    <g clip-path="url(#p17a7d03b49)">
     <!-- CLYTEMNESTRE -->
     <g transform="translate(137.363236711 323.151065734)scale(0.12 -0.12)">
      <use xlink:href="#BitstreamVeraSans-Roman-43"/>
      <use x="69.82421875" xlink:href="#BitstreamVeraSans-Roman-4c"/>
      <use x="125.333984375" xlink:href="#BitstreamVeraSans-Roman-59"/>
      <use x="186.41796875" xlink:href="#BitstreamVeraSans-Roman-54"/>
      <use x="247.501953125" xlink:href="#BitstreamVeraSans-Roman-45"/>
      <use x="310.685546875" xlink:href="#BitstreamVeraSans-Roman-4d"/>
      <use x="396.96484375" xlink:href="#BitstreamVeraSans-Roman-4e"/>
      <use x="471.76953125" xlink:href="#BitstreamVeraSans-Roman-45"/>
      <use x="534.953125" xlink:href="#BitstreamVeraSans-Roman-53"/>
      <use x="598.4296875" xlink:href="#BitstreamVeraSans-Roman-54"/>
      <use x="659.513671875" xlink:href="#BitstreamVeraSans-Roman-52"/>
      <use x="728.99609375" xlink:href="#BitstreamVeraSans-Roman-45"/>
     </g>
    </g>
   </g>
   <g id="text_25">
    <g clip-path="url(#p17a7d03b49)">
     <!-- DORIDE -->
     <g transform="translate(58.5922767857 367.559947438)scale(0.12 -0.12)">
      <use xlink:href="#BitstreamVeraSans-Roman-44"/>
      <use x="77.001953125" xlink:href="#BitstreamVeraSans-Roman-4f"/>
      <use x="155.712890625" xlink:href="#BitstreamVeraSans-Roman-52"/>
      <use x="225.1953125" xlink:href="#BitstreamVeraSans-Roman-49"/>
      <use x="254.6875" xlink:href="#BitstreamVeraSans-Roman-44"/>
      <use x="331.689453125" xlink:href="#BitstreamVeraSans-Roman-45"/>
     </g>
    </g>
   </g>
  </g>
 </g>
 <defs>
  <clipPath id="p17a7d03b49">
   <rect height="518.4" width="576.0" x="0.0" y="57.6"/>
  </clipPath>
 </defs>
</svg>
